<?xml version="1.0" encoding="UTF-8"?>
<svg id="Layer_1" data-name="Layer 1" xmlns="http://www.w3.org/2000/svg" viewBox="0 0 7311.28 2000">
  <defs>
    <style>
      .cls-1 {
        fill: none;
      }

      .cls-2 {
        fill: #407ec9;
      }

      .cls-2, .cls-3 {
        fill-rule: evenodd;
      }

      .cls-4 {
        fill: #1d252d;
      }

      .cls-3 {
        fill: #f3f7f8;
      }
    </style>
  </defs>
  <rect class="cls-1" x="0" y="0" width="7311.28" height="2000"/>
  <g>
    <rect class="cls-4" x="399.97" y="400.16" width="1199.87" height="1199.87" rx="149.39" ry="149.39"/>
    <g>
      <path class="cls-2" d="M999.93,577.47v46.96h-375.69v375.64h-46.96c0,233.44,189.21,422.65,422.65,422.65v-46.96h375.64v-375.69h46.96c0-233.39-189.21-422.6-422.6-422.6ZM1281.65,1000.07v281.77h-281.72v46.96c-181.56,0-328.73-147.17-328.73-328.73h46.96v-281.72h281.77v-46.96c181.51,0,328.68,147.17,328.68,328.68h-46.96Z"/>
      <path class="cls-3" d="M999.93,812.28h-.76c-103.41.35-187.08,84.34-187.08,187.79s84.08,187.84,187.84,187.84,187.79-84.08,187.79-187.84-84.08-187.79-187.79-187.79ZM999.93,1093.99c-51.88,0-93.92-42.04-93.92-93.92h93.92v-93.87c51.83,0,93.92,42.04,93.92,93.87s-42.09,93.92-93.92,93.92Z"/>
    </g>
  </g>
  <g>
    <path class="cls-4" d="M2266.53,605.97c2.65-2.65,5.86-3.98,9.66-3.98h104.59c3.79,0,7,1.33,9.66,3.98,2.65,2.66,3.98,5.88,3.98,9.66v768.54c0,3.8-1.33,7.02-3.98,9.66-2.66,2.66-5.88,3.98-9.66,3.98h-101.18c-7.58,0-12.9-3.02-15.92-9.1l-327.43-536.61c-1.53-2.27-3.04-3.21-4.55-2.84-1.53.39-2.27,2.1-2.27,5.12l2.27,529.8c0,3.8-1.33,7.02-3.98,9.66-2.66,2.66-5.88,3.98-9.66,3.98h-104.6c-3.8,0-7.02-1.32-9.66-3.98-2.66-2.65-3.98-5.86-3.98-9.66v-768.54c0-3.78,1.32-7,3.98-9.66,2.65-2.65,5.86-3.98,9.66-3.98h101.18c7.57,0,12.88,3.04,15.92,9.1l326.29,536.61c1.51,2.27,3.02,3.23,4.55,2.84,1.51-.37,2.28-2.08,2.28-5.12l-1.14-529.8c0-3.78,1.32-7,3.98-9.66Z"/>
    <path class="cls-4" d="M2458.65,1392.7c-1.9-3.41-1.33-7.39,1.71-11.94l184.17-270.58c1.51-2.27,1.51-4.55,0-6.82l-184.17-269.45c-1.53-3.02-2.28-5.68-2.28-7.96,0-6.06,3.79-9.1,11.37-9.1h111.41c6.82,0,12.12,3.04,15.92,9.1l118.24,175.08c1.51,1.53,3.02,2.27,4.55,2.27s2.65-.75,3.41-2.27l118.24-175.08c3.78-6.06,9.09-9.1,15.92-9.1h119.37c5.29,0,8.9,1.71,10.8,5.12,1.89,3.41,1.32,7.39-1.7,11.94l-184.17,269.45c-.77,2.27-.77,4.55,0,6.82l184.17,270.58c1.51,3.04,2.28,5.68,2.28,7.96,0,6.08-3.8,9.1-11.37,9.1h-111.42c-6.82,0-12.13-3.02-15.92-9.1l-118.24-175.08c-.77-1.51-1.9-2.27-3.41-2.27s-3.04.76-4.55,2.27l-118.24,175.08c-3.8,6.08-9.09,9.1-15.92,9.1h-119.37c-5.31,0-8.92-1.7-10.8-5.12Z"/>
    <path class="cls-4" d="M3396.42,1386.45l-206.91-769.68-1.14-4.55c0-6.82,4.16-10.23,12.51-10.23h111.41c8.33,0,13.64,3.8,15.92,11.37l129.61,518.43c.74,2.27,1.88,3.41,3.41,3.41s2.65-1.14,3.41-3.41l123.93-518.43c2.27-7.57,7.19-11.37,14.78-11.37h109.14c8.33,0,13.64,3.8,15.92,11.37l131.88,519.56c.74,2.27,1.88,3.41,3.41,3.41s2.65-1.14,3.41-3.41l127.33-519.56c2.28-7.57,7.57-11.37,15.92-11.37h105.73c10.6,0,14.78,4.94,12.51,14.78l-196.69,769.68c-2.27,7.59-7.58,11.37-15.92,11.37h-105.73c-8.35,0-13.64-3.78-15.92-11.37l-133.01-542.3c-.77-2.27-1.9-3.59-3.41-3.98-1.53-.37-2.66.96-3.41,3.98l-127.33,542.3c-2.27,7.59-7.21,11.37-14.78,11.37h-100.04c-8.35,0-13.64-3.78-15.92-11.37Z"/>
    <path class="cls-4" d="M4206.68,714.54c-15.17-15.15-22.74-34.48-22.74-57.98s7.57-42.81,22.74-57.98c15.15-15.15,34.48-22.74,57.98-22.74s42.81,7.59,57.98,22.74c15.15,15.17,22.74,34.5,22.74,57.98s-7.58,42.83-22.74,57.98c-15.17,15.17-34.5,22.74-57.98,22.74s-42.83-7.57-57.98-22.74ZM4200.43,1393.84c-2.66-2.65-3.98-5.86-3.98-9.66v-554.81c0-3.78,1.32-7,3.98-9.66,2.65-2.65,5.86-3.98,9.66-3.98h104.6c3.78,0,6.99,1.33,9.66,3.98,2.65,2.66,3.98,5.88,3.98,9.66v554.81c0,3.8-1.33,7.02-3.98,9.66-2.66,2.66-5.88,3.98-9.66,3.98h-104.6c-3.8,0-7.02-1.32-9.66-3.98Z"/>
    <path class="cls-4" d="M4729.98,919.75c-2.66,2.66-5.88,3.98-9.66,3.98h-115.97c-3.8,0-5.68,1.9-5.68,5.68v273.99c0,28.81,6.26,49.65,18.76,62.53,12.51,12.9,32.4,19.33,59.69,19.33h34.11c3.79,0,7,1.33,9.66,3.98,2.65,2.66,3.98,5.88,3.98,9.66v85.27c0,8.35-4.55,13.27-13.64,14.78l-59.12,1.14c-59.88,0-104.6-10.23-134.16-30.7-29.55-20.46-44.73-59.12-45.48-115.96v-324.02c0-3.78-1.9-5.68-5.68-5.68h-64.8c-3.8,0-7.02-1.32-9.66-3.98-2.66-2.65-3.98-5.86-3.98-9.66v-79.58c0-3.79,1.32-7,3.98-9.66,2.65-2.65,5.86-3.98,9.66-3.98h64.8c3.79,0,5.68-1.88,5.68-5.68v-133.02c0-3.78,1.32-7,3.98-9.66,2.65-2.65,5.86-3.98,9.66-3.98h98.91c3.78,0,6.99,1.33,9.66,3.98,2.65,2.66,3.98,5.88,3.98,9.66v133.02c0,3.8,1.88,5.68,5.68,5.68h115.97c3.78,0,7,1.33,9.66,3.98,2.64,2.66,3.97,5.88,3.97,9.66v79.58c0,3.8-1.33,7.02-3.97,9.66Z"/>
    <path class="cls-4" d="M5223.39,862.34c36.75,36.38,55.14,86.03,55.14,148.93v372.9c0,3.8-1.33,7.02-3.98,9.66-2.66,2.66-5.88,3.98-9.66,3.98h-104.59c-3.8,0-7.02-1.32-9.66-3.98-2.66-2.65-3.98-5.86-3.98-9.66v-345.62c0-34.85-9.86-63.1-29.56-84.7-19.72-21.6-45.86-32.4-78.44-32.4s-58.94,10.62-79.01,31.83c-20.1,21.23-30.13,49.28-30.13,84.13v346.75c0,3.8-1.33,7.02-3.97,9.66-2.66,2.66-5.88,3.98-9.66,3.98h-104.6c-3.8,0-7.02-1.32-9.66-3.98-2.66-2.65-3.97-5.86-3.97-9.66v-553.67c0-3.79,1.31-7,3.97-9.66s5.86-3.98,9.66-3.98h104.6c3.78,0,7,1.33,9.66,3.98,2.64,2.66,3.97,5.88,3.97,9.66v36.38c0,2.27.75,3.8,2.28,4.55,1.51.76,2.65,0,3.41-2.27,31.07-40.93,78.06-61.39,140.98-61.39s110.45,18.19,147.22,54.57Z"/>
    <path class="cls-4" d="M5866.86,1105.64l-1.14,35.24c0,9.1-4.55,13.64-13.64,13.64h-355.85c-3.8,0-5.68,1.9-5.68,5.68,2.27,25.01,5.68,42.06,10.23,51.16,18.19,54.57,62.53,82.25,133.02,82.99,51.53,0,92.46-21.21,122.78-63.66,3.02-4.55,6.82-6.82,11.37-6.82,3.02,0,5.68,1.14,7.96,3.41l70.48,57.98c6.82,5.31,7.96,11.37,3.41,18.19-23.5,33.36-54.77,59.12-93.79,77.31-39.05,18.19-82.43,27.28-130.18,27.28-59.12,0-109.34-13.25-150.64-39.79-41.32-26.52-71.44-63.66-90.39-111.41-17.44-40.93-26.15-97.77-26.15-170.53,0-43.95,4.55-79.58,13.64-106.87,15.15-53.04,43.77-94.93,85.83-125.63,42.07-30.7,92.66-46.04,151.78-46.04,149.31,0,233.44,78.07,252.39,234.2,3.02,18.95,4.55,40.18,4.55,63.67ZM5540.01,942.49c-18.59,14.03-31.66,33.54-39.23,58.55-4.55,12.9-7.58,29.56-9.09,50.02-1.53,3.8,0,5.68,4.55,5.68h230.79c3.79,0,5.68-1.88,5.68-5.68-1.53-18.94-3.8-33.34-6.82-43.2-6.82-27.28-20.28-48.5-40.36-63.66-20.09-15.15-45.3-22.74-75.6-22.74-28.05,0-51.35,7.02-69.92,21.03Z"/>
    <path class="cls-4" d="M6029.31,1383.61c-36.01-14.02-63.86-33.34-83.56-57.98-19.72-24.62-29.55-52.1-29.55-82.43v-10.23c0-3.78,1.31-7,3.97-9.66,2.65-2.65,5.86-3.98,9.66-3.98h100.05c3.78,0,6.99,1.33,9.66,3.98,2.65,2.66,3.98,5.88,3.98,9.66v2.27c0,18.95,10.41,35.44,31.26,49.46,20.84,14.03,47.18,21.03,79.02,21.03s54.94-6.25,73.9-18.76c18.94-12.51,28.42-28.23,28.42-47.18,0-17.43-7.78-30.5-23.31-39.23-15.54-8.7-40.75-17.99-75.6-27.85l-43.2-13.64c-38.65-11.37-71.25-23.48-97.77-36.38-26.54-12.88-48.88-30.5-67.08-52.87-18.19-22.35-27.28-50.96-27.28-85.83,0-53.05,20.83-95.3,62.53-126.77,41.67-31.44,96.64-47.18,164.85-47.18,46.22,0,86.78,7.39,121.64,22.17,34.86,14.78,61.77,35.24,80.72,61.39,18.94,26.15,28.42,55.9,28.42,89.25,0,3.8-1.33,7.02-3.98,9.66-2.66,2.66-5.88,3.98-9.66,3.98h-96.64c-3.8,0-7.02-1.31-9.66-3.98-2.66-2.65-3.98-5.86-3.98-9.66,0-19.7-9.66-36.19-28.99-49.46-19.32-13.25-45.67-19.9-79.01-19.9-29.56,0-53.63,5.51-72.19,16.49-18.58,10.99-27.86,26.34-27.86,46.04,0,18.19,8.9,32.03,26.72,41.5,17.8,9.48,47.56,19.9,89.25,31.26l25.01,6.82c40.16,12.14,73.9,24.44,101.18,36.95,27.28,12.51,50.39,29.95,69.35,52.3,18.94,22.37,28.42,51.35,28.42,86.97,0,53.82-21.23,96.07-63.67,126.77-42.46,30.7-98.91,46.04-169.4,46.04-47.75,0-89.64-7-125.63-21.03Z"/>
    <path class="cls-4" d="M6552.62,1383.61c-36.01-14.02-63.86-33.34-83.56-57.98-19.72-24.62-29.55-52.1-29.55-82.43v-10.23c0-3.78,1.31-7,3.97-9.66,2.65-2.65,5.86-3.98,9.66-3.98h100.05c3.78,0,6.99,1.33,9.66,3.98,2.65,2.66,3.98,5.88,3.98,9.66v2.27c0,18.95,10.41,35.44,31.26,49.46,20.84,14.03,47.18,21.03,79.02,21.03s54.94-6.25,73.9-18.76c18.94-12.51,28.42-28.23,28.42-47.18,0-17.43-7.78-30.5-23.31-39.23-15.54-8.7-40.75-17.99-75.6-27.85l-43.2-13.64c-38.65-11.37-71.25-23.48-97.77-36.38-26.54-12.88-48.88-30.5-67.08-52.87-18.19-22.35-27.28-50.96-27.28-85.83,0-53.05,20.83-95.3,62.53-126.77,41.67-31.44,96.64-47.18,164.85-47.18,46.22,0,86.78,7.39,121.64,22.17,34.86,14.78,61.77,35.24,80.72,61.39,18.94,26.15,28.42,55.9,28.42,89.25,0,3.8-1.33,7.02-3.98,9.66-2.66,2.66-5.88,3.98-9.66,3.98h-96.64c-3.8,0-7.02-1.31-9.66-3.98-2.66-2.65-3.98-5.86-3.98-9.66,0-19.7-9.66-36.19-28.99-49.46-19.32-13.25-45.67-19.9-79.01-19.9-29.56,0-53.63,5.51-72.19,16.49-18.58,10.99-27.86,26.34-27.86,46.04,0,18.19,8.9,32.03,26.72,41.5,17.8,9.48,47.56,19.9,89.25,31.26l25.01,6.82c40.16,12.14,73.9,24.44,101.18,36.95,27.28,12.51,50.39,29.95,69.35,52.3,18.94,22.37,28.42,51.35,28.42,86.97,0,53.82-21.23,96.07-63.67,126.77-42.46,30.7-98.91,46.04-169.4,46.04-47.75,0-89.64-7-125.63-21.03Z"/>
  </g>
</svg>